<?xml version="1.0" ?><!DOCTYPE svg  PUBLIC '-//W3C//DTD SVG 1.1//EN'  'http://www.w3.org/Graphics/SVG/1.1/DTD/svg11.dtd'><svg enable-background="new 0 0 33 33" height="33px" id="Layer_1" version="1.1" viewBox="0 0 33 33" width="33px" xml:space="preserve" xmlns="http://www.w3.org/2000/svg" xmlns:xlink="http://www.w3.org/1999/xlink"><g><path d="M32.188,11.72c-0.012-0.02-1.445-2.225-0.775-6.219H29.99l-0.021-0.018l-0.014,0.018H13.356L1.667,20.308   c0,0-0.418,0.611-0.625,0.996C0.7,21.937,0.5,22.698,0.5,23.522c0,2.203,1.42,3.994,3.166,3.994h17.644l10.867-14.893l0.322-0.451   L32.188,11.72z M14.274,7.733h12.441l-1.795,2.273H12.479L14.274,7.733z M3.667,25.958c-0.873,0-1.607-1.115-1.607-2.436   s0.734-2.436,1.607-2.436h14.71c-0.152,2.094,0.49,3.789,1.08,4.871H3.667z M20.932,25.39c-0.551-0.953-1.25-2.664-0.928-4.77   l9.717-12.307c0.098,1.869,0.58,3.148,0.902,3.797L20.932,25.39z" fill="#2B3847"/><polygon fill="#1C75BC" points="4.6,21.664 4.25,25.228 5.458,24.351 6.665,25.228 6.315,21.664  "/></g></svg>