<?xml version="1.0" encoding="UTF-8"?>
<svg width="750px" height="250px" viewBox="0 0 750 250" version="1.1" xmlns="http://www.w3.org/2000/svg" xmlns:xlink="http://www.w3.org/1999/xlink">
    <title>lib-logo</title>
    <defs>
        <path d="M305.1,153 C307.1,153 308.7,151.4 308.7,149.4 C308.7,147.4 307.1,145.7 305.1,145.7 L268.8,145.7 L268.8,86.5 C268.8,84.3 267,82.5 264.8,82.5 C262.7,82.5 260.9,84.3 260.9,86.5 L260.9,149 C260.9,151.2 262.7,153 264.8,153 L305.1,153 Z M327.4,153.5 C329.6,153.5 331.4,151.7 331.4,149.5 L331.4,86.5 C331.4,84.3 329.6,82.5 327.4,82.5 C325.3,82.5 323.5,84.3 323.5,86.5 L323.5,149.5 C323.5,151.7 325.3,153.5 327.4,153.5 Z M383,153 C398.3,153 408.4,145.9 408.4,133.9 L408.4,133.7 C408.4,124.1 401.7,119.3 393.4,116.8 C398.9,114.4 404.5,109.7 404.5,100.6 L404.5,100.4 C404.5,95.9 402.9,92.2 400,89.2 C396,85.3 389.7,83 381.7,83 L355.8,83 C353.7,83 351.9,84.8 351.9,87 L351.9,149 C351.9,151.2 353.7,153 355.8,153 L383,153 Z M380.4,114.2 L359.7,114.2 L359.7,90.1 L381,90.1 C391,90.1 396.5,94.6 396.5,101.5 L396.5,101.7 C396.5,109.9 389.9,114.2 380.4,114.2 Z M383.2,145.9 L359.7,145.9 L359.7,121.2 L381.8,121.2 C394,121.2 400.4,125.6 400.4,133.2 L400.4,133.4 C400.4,141.2 393.8,145.9 383.2,145.9 Z M475.5,153.5 C477.5,153.5 479.5,151.7 479.5,149.6 C479.5,148.5 479,147.6 478.2,146.7 L460.8,124.3 C471.7,122.2 479.5,115.5 479.5,104 L479.5,103.8 C479.5,98.3 477.5,93.4 474.1,90 C469.7,85.6 462.8,83 454.2,83 L428,83 C425.9,83 424.1,84.8 424.1,87 L424.1,149.5 C424.1,151.7 425.9,153.5 428,153.5 C430.2,153.5 432,151.7 432,149.5 L432,125.8 L452.1,125.8 L471.8,151.4 C472.7,152.6 473.9,153.5 475.5,153.5 Z M453.5,118.7 L432,118.7 L432,90.3 L453.6,90.3 C464.9,90.3 471.5,95.5 471.5,104.1 L471.5,104.3 C471.5,113.3 464,118.7 453.5,118.7 Z M555.9,153.5 C558,153.5 559.7,151.8 559.7,149.7 C559.7,149.1 559.5,148.4 559.2,147.7 L530.8,85.7 C529.9,83.5 528.3,82.2 525.9,82.2 L525.5,82.2 C523,82.2 521.5,83.5 520.5,85.7 L492.1,147.8 C491.7,148.6 491.6,149.3 491.6,149.9 C491.6,151.9 493.2,153.5 495.2,153.5 C497,153.5 498.3,152.5 499,150.8 L506.3,134.5 L544.7,134.5 L552,150.6 C552.7,152.2 554,153.5 555.9,153.5 Z M541.6,127.3 L509.4,127.3 L525.5,91.5 L541.6,127.3 Z M626.2,153.5 C628.2,153.5 630.2,151.7 630.2,149.6 C630.2,148.5 629.7,147.6 628.9,146.7 L611.5,124.3 C622.4,122.2 630.2,115.5 630.2,104 L630.2,103.8 C630.2,98.3 628.2,93.4 624.8,90 C620.4,85.6 613.5,83 604.9,83 L578.7,83 C576.6,83 574.8,84.8 574.8,87 L574.8,149.5 C574.8,151.7 576.6,153.5 578.7,153.5 C580.9,153.5 582.7,151.7 582.7,149.5 L582.7,125.8 L602.8,125.8 L622.5,151.4 C623.4,152.6 624.6,153.5 626.2,153.5 Z M604.2,118.7 L582.7,118.7 L582.7,90.3 L604.3,90.3 C615.6,90.3 622.2,95.5 622.2,104.1 L622.2,104.3 C622.2,113.3 614.7,118.7 604.2,118.7 Z M670.4,153.5 C672.6,153.5 674.4,151.7 674.4,149.5 L674.4,125.3 L700.3,89.3 C700.8,88.5 701.4,87.4 701.4,86.4 C701.4,84.3 699.7,82.5 697.5,82.5 C695.8,82.5 694.8,83.5 693.8,84.9 L670.5,118.2 L647.4,84.9 C646.4,83.5 645.3,82.5 643.6,82.5 C641.4,82.5 639.5,84.3 639.5,86.4 C639.5,87.4 639.9,88.3 640.4,89.1 L666.4,125.5 L666.4,149.5 C666.4,151.7 668.2,153.5 670.4,153.5 Z" id="path-1"></path>
    </defs>
    <g id="lib-logo" stroke="none" stroke-width="1" fill="none" fill-rule="evenodd">
        <g id="library-book" transform="translate(37.000000, 63.929461)" fill-rule="nonzero">
            <path d="M155.474109,30.6426812 C155.415232,30.5446464 148.384356,19.7363135 151.671646,0.158770709 L144.689834,0.158770709 L144.5868,0.0705394191 L144.51811,0.158770709 L63.0767211,0.158770709 L5.72577268,72.7388097 C5.72577268,72.7388097 3.67489609,75.7337718 2.6592706,77.6209411 C0.981280665,80.7237414 0,84.4539643 0,88.4929966 C0,99.2915261 6.96709272,108.070539 15.5336729,108.070539 L102.102253,108.070539 L155.420138,35.0689509 L157,32.8582669 L155.474109,30.6426812 Z M67.5807994,11.0994506 L128.621363,11.0994506 L119.814369,22.2411018 L58.7738054,22.2411018 L67.5807994,11.0994506 Z M15.5385793,100.433631 C11.2552892,100.433631 7.65398919,94.9681929 7.65398919,88.4929966 C7.65398919,82.0178003 11.2552892,76.5523621 15.5385793,76.5523621 L87.7117722,76.5523621 C86.9659989,86.8166021 90.1159099,95.1250486 93.0106878,100.428729 L15.5385793,100.428729 L15.5385793,100.433631 Z M100.247633,97.6494438 C97.5442045,92.9780872 94.1146286,84.591213 95.6944905,74.2681521 L143.370012,13.9424588 C143.850839,23.1038077 146.215725,29.373131 147.795587,32.5543591 L100.247633,97.6494438 Z" id="Shape" fill="#2B3847"></path>
            <polygon id="Path" fill="#1C75BC" points="19.7391304 79.0705394 18 97.0705394 24.0024845 92.6412465 30 97.0705394 28.2608696 79.0705394"></polygon>
        </g>
        <g id="LIBRARY" fill-rule="nonzero">
            <use fill="#9EA7B3" xlink:href="#path-1"></use>
            <use fill="#2B3847" xlink:href="#path-1"></use>
        </g>
    </g>
</svg>