<?xml version="1.0" encoding="UTF-8"?>
<svg width="250px" height="250px" viewBox="0 0 250 250" version="1.1" xmlns="http://www.w3.org/2000/svg" xmlns:xlink="http://www.w3.org/1999/xlink">
    <title>lib-icon</title>
    <g id="lib-icon" stroke="none" stroke-width="1" fill="none" fill-rule="evenodd">
        <g id="library-book" transform="translate(5.000000, 41.000000)" fill-rule="nonzero">
            <path d="M238.657708,46.9905142 C238.56733,46.8398312 227.774712,30.2270231 232.820807,0.13561476 L222.103503,0.13561476 L221.945342,0 L221.839901,0.13561476 L96.8247758,0.13561476 L8.78924341,111.693823 C8.78924341,111.693823 5.64108253,116.297191 4.08206506,119.19784 C1.50629707,123.966959 0,129.700449 0,135.908592 C0,152.506331 10.6947092,166 23.8446826,166 L156.73021,166 L238.574862,53.7938547 L241,50.3959515 L238.657708,46.9905142 Z M103.738679,16.951845 L197.437889,16.951845 L183.918872,34.0769754 L90.2196631,34.0769754 L103.738679,16.951845 Z M23.8522141,154.261789 C17.2772274,154.261789 11.7491172,145.861208 11.7491172,135.908592 C11.7491172,125.955975 17.2772274,117.555394 23.8522141,117.555394 L134.640364,117.555394 C133.495578,133.331911 138.330792,146.102301 142.774368,154.254255 L23.8522141,154.254255 L23.8522141,154.261789 Z M153.883309,149.98239 C149.73346,142.802342 144.468952,129.911406 146.89409,114.044479 L220.077534,21.3216539 C220.815619,35.4029864 224.445795,45.0391685 226.870933,49.928834 L153.883309,149.98239 Z" id="Shape" fill="#2B3847"></path>
            <polygon id="Path" fill="#1C75BC" points="30.6086957 122 28 149 37.0037267 142.356061 46 149 43.3913043 122"></polygon>
        </g>
    </g>
</svg>